# Blender v3.0.0 OBJ File: 'Stone, Tree, Grave.blend'
# www.blender.org
mtllib Tree.mtl
o Cube.001_Cube.002
v -0.255728 -0.221808 0.255728
v -0.061084 4.159457 0.061084
v -0.255728 -0.221808 -0.255728
v -0.061084 4.159457 -0.061084
v 0.255728 -0.221808 0.255728
v 0.061084 4.159457 0.061084
v 0.255728 -0.221808 -0.255728
v 0.061084 4.159457 -0.061084
v -0.255728 0.419937 0.255728
v -0.255728 0.419937 -0.255728
v 0.255728 0.419937 -0.255728
v 0.255728 0.419937 0.255728
v -0.256914 2.373232 0.256914
v -0.256914 2.373232 -0.256914
v 0.256914 2.373232 -0.256914
v 0.256914 2.373232 0.256914
v -0.703946 0.807292 0.703946
v -0.703946 0.807292 -0.703946
v 0.703946 0.807292 -0.703946
v 0.703946 0.807292 0.703946
v -0.190931 3.266345 0.190931
v -0.190931 3.266345 -0.190931
v 0.190931 3.266345 -0.190931
v 0.190931 3.266345 0.190931
v -0.589537 1.688778 0.589537
v -0.589537 1.688778 -0.589537
v 0.589537 1.688778 -0.589537
v 0.589537 1.688778 0.589537
v -0.157940 3.712901 0.157940
v -0.157940 3.712901 -0.157940
v 0.157940 3.712901 -0.157940
v 0.157940 3.712901 0.157940
v -0.441701 2.602901 0.441701
v -0.441701 2.602901 -0.441701
v 0.441701 2.602901 -0.441701
v 0.441701 2.602901 0.441701
vt 0.254023 0.921027
vt 0.277315 0.946182
vt 0.279100 0.949341
vt 0.254028 0.972880
vt 0.282412 0.947814
vt 0.305699 0.972963
vt 0.280626 0.944655
vt 0.305699 0.921117
vt 0.786667 0.962111
vt 0.786667 0.921027
vt 0.827750 0.921027
vt 0.827750 0.962111
vt 0.734562 0.826405
vt 0.683021 0.826377
vt 0.683070 0.785296
vt 0.734594 0.785342
vt 0.734551 0.867471
vt 0.683000 0.867472
vt 0.734565 0.908541
vt 0.683011 0.908568
vt 0.734594 0.949620
vt 0.683051 0.949656
vt 0.526105 0.826196
vt 0.526178 0.784925
vt 0.526080 0.867462
vt 0.526100 0.908728
vt 0.526165 0.949992
vt 0.158440 0.692210
vt 0.158870 0.670335
vt 0.250082 0.578958
vt 0.250082 0.784503
vt 0.136954 0.671475
vt 0.136524 0.693351
vt 0.045311 0.784727
vt 0.045318 0.579187
vt 0.873349 0.907522
vt 0.944701 0.896951
vt 0.951414 0.926880
vt 0.882382 0.947795
vt 0.870316 0.866360
vt 0.942447 0.866360
vt 0.873349 0.825198
vt 0.944701 0.835770
vt 0.882382 0.784925
vt 0.951414 0.805840
vt 0.334890 0.664171
vt 0.334607 0.678537
vt 0.250280 0.762922
vt 0.250288 0.579007
vt 0.349013 0.677702
vt 0.349298 0.663335
vt 0.433616 0.578958
vt 0.433616 0.762863
vt 0.916838 0.670069
vt 0.952513 0.664783
vt 0.958067 0.689541
vt 0.923551 0.699999
vt 0.914584 0.639479
vt 0.950649 0.639479
vt 0.916838 0.608888
vt 0.952513 0.614174
vt 0.923551 0.578958
vt 0.958067 0.589416
vt 0.327199 0.858852
vt 0.328160 0.846949
vt 0.389349 0.784925
vt 0.389349 0.920713
vt 0.316173 0.846902
vt 0.315213 0.858806
vt 0.254023 0.920829
vt 0.254030 0.785047
vn -0.9773 0.2120 0.0000
vn 0.0000 0.2120 -0.9773
vn 0.9773 0.2120 0.0000
vn 0.0000 0.2120 0.9773
vn 0.0000 -1.0000 0.0000
vn 0.0000 1.0000 0.0000
vn 0.0000 0.0000 1.0000
vn 1.0000 0.0000 0.0000
vn 0.0000 0.0000 -1.0000
vn -1.0000 0.0000 0.0000
vn 0.0000 -0.0006 1.0000
vn 1.0000 -0.0006 0.0000
vn 0.0000 -0.0006 -1.0000
vn -1.0000 -0.0006 -0.0000
vn 0.0000 -0.2745 0.9616
vn 0.0000 -0.2745 -0.9616
vn 0.9616 -0.2745 0.0000
vn -0.9616 -0.2745 0.0000
vn 0.0000 0.0737 0.9973
vn 0.9973 0.0737 0.0000
vn 0.0000 0.0737 -0.9973
vn -0.9973 0.0737 0.0000
vn 0.0000 -0.2450 0.9695
vn 0.0000 -0.2450 -0.9695
vn 0.9695 -0.2450 0.0000
vn -0.9695 -0.2450 0.0000
vn 0.9688 -0.2477 0.0000
vn -0.9688 -0.2477 0.0000
vn 0.0000 -0.2477 0.9688
vn 0.0000 -0.2477 -0.9688
usemtl Material.001
s off
f 29/1/1 2/2/1 4/3/1 30/4/1
f 30/4/2 4/3/2 8/5/2 31/6/2
f 31/6/3 8/5/3 6/7/3 32/8/3
f 32/8/4 6/7/4 2/2/4 29/1/4
f 3/9/5 7/10/5 5/11/5 1/12/5
f 8/5/6 4/3/6 2/2/6 6/7/6
f 5/13/7 12/14/7 9/15/7 1/16/7
f 7/17/8 11/18/8 12/14/8 5/13/8
f 3/19/9 10/20/9 11/18/9 7/17/9
f 1/21/10 9/22/10 10/20/10 3/19/10
f 12/14/11 16/23/11 13/24/11 9/15/11
f 11/18/12 15/25/12 16/23/12 12/14/12
f 10/20/13 14/26/13 15/25/13 11/18/13
f 9/22/14 13/27/14 14/26/14 10/20/14
f 15/28/15 14/29/15 18/30/15 19/31/15
f 13/32/16 16/33/16 20/34/16 17/35/16
f 14/29/17 13/32/17 17/35/17 18/30/17
f 16/33/18 15/28/18 19/31/18 20/34/18
f 16/36/19 24/37/19 21/38/19 13/39/19
f 15/40/20 23/41/20 24/37/20 16/36/20
f 14/42/21 22/43/21 23/41/21 15/40/21
f 13/44/22 21/45/22 22/43/22 14/42/22
f 23/46/23 22/47/23 26/48/23 27/49/23
f 21/50/24 24/51/24 28/52/24 25/53/24
f 22/47/25 21/50/25 25/53/25 26/48/25
f 24/51/26 23/46/26 27/49/26 28/52/26
f 24/54/19 32/55/19 29/56/19 21/57/19
f 23/58/20 31/59/20 32/55/20 24/54/20
f 22/60/21 30/61/21 31/59/21 23/58/21
f 21/62/22 29/63/22 30/61/22 22/60/22
f 30/64/27 29/65/27 33/66/27 34/67/27
f 32/68/28 31/69/28 35/70/28 36/71/28
f 31/69/29 30/64/29 34/67/29 35/70/29
f 29/65/30 32/68/30 36/71/30 33/66/30
